<svg width="50" height="50" viewBox="0 0 50 50" fill="none" xmlns="http://www.w3.org/2000/svg">
<g clip-path="url(#clip0_637_190)">
<path d="M35.8951 21.4375C36.3876 18.1125 33.8826 16.3225 30.4576 15.13L31.5701 10.625L28.8576 9.93996L27.7751 14.3275C27.0626 14.1475 26.3301 13.9775 25.6026 13.81L26.6926 9.39496L23.9801 8.70996L22.8701 13.215C22.2913 13.084 21.7138 12.9473 21.1376 12.805L21.1401 12.79L17.4001 11.845L16.6801 14.775C16.6801 14.775 18.6901 15.2425 18.6501 15.27C19.4326 15.37 19.9926 16.08 19.9126 16.865L16.8701 29.21C16.832 29.335 16.7694 29.4512 16.6859 29.5518C16.6024 29.6524 16.4997 29.7353 16.3838 29.7958C16.2679 29.8563 16.1412 29.8932 16.0109 29.9042C15.8807 29.9152 15.7495 29.9002 15.6251 29.86C15.6526 29.9025 13.6551 29.365 13.6551 29.365L12.3076 32.505L15.8376 33.395C16.4951 33.56 17.1376 33.735 17.7701 33.8975L16.6476 38.4575L19.3576 39.14L20.4701 34.63C21.2101 34.835 21.9276 35.0225 22.6301 35.1975L21.5226 39.685L24.2351 40.37L25.3576 35.82C29.9826 36.705 33.4601 36.3475 34.9251 32.12C35.2262 31.524 35.4004 30.872 35.4369 30.2053C35.4734 29.5386 35.3713 28.8716 35.1371 28.2463C34.9029 27.621 34.5417 27.051 34.0762 26.5723C33.6107 26.0936 33.0511 25.7166 32.4326 25.465C33.3726 25.2692 34.2215 24.7685 34.8477 24.0407C35.4738 23.3129 35.842 22.3986 35.8951 21.44V21.4375ZM29.6976 30.2275C28.8601 33.6325 23.1901 31.7925 21.3501 31.3275L22.8401 25.2925C24.6776 25.755 30.5751 26.675 29.6976 30.2275ZM30.5376 21.39C29.7726 24.4875 25.0526 22.915 23.5226 22.5275L24.8726 17.0525C26.4026 17.4375 31.3326 18.1575 30.5376 21.39Z" fill="url(#paint0_linear_637_190)"/>
<g filter="url(#filter0_bii_637_190)">
<path d="M25 0C11.1925 0 0 11.1925 0 25C0 38.8075 11.1925 50 25 50C38.8075 50 50 38.8075 50 25C50 11.1925 38.8075 0 25 0ZM35.895 21.4375C35.8424 22.3966 35.4745 23.3114 34.8483 24.0398C34.2221 24.7681 33.3728 25.2692 32.4325 25.465C33.0503 25.7167 33.6094 26.0936 34.0744 26.5719C34.5394 27.0502 34.9004 27.6197 35.1345 28.2444C35.3686 28.8691 35.4709 29.5355 35.4349 30.2016C35.3988 30.8678 35.2252 31.5192 34.925 32.115C33.46 36.3475 29.9825 36.705 25.3575 35.82L24.235 40.37L21.5225 39.685L22.63 35.1975C21.9076 35.0175 21.1876 34.8283 20.47 34.63L19.3575 39.14L16.6475 38.4575L17.7725 33.8975C17.1375 33.735 16.495 33.56 15.8375 33.395L12.3075 32.505L13.655 29.365C13.655 29.365 15.655 29.9025 15.625 29.8625L15.6375 29.865C15.7614 29.9032 15.8917 29.9165 16.0208 29.9042C16.1499 29.892 16.2753 29.8543 16.3898 29.7935C16.5043 29.7326 16.6057 29.6497 16.6881 29.5496C16.7705 29.4495 16.8323 29.3341 16.87 29.21L19.9125 16.865C19.9515 16.487 19.8413 16.1088 19.6055 15.8108C19.3697 15.5129 19.0268 15.3188 18.65 15.27C18.69 15.2425 16.68 14.775 16.68 14.775L17.4 11.845L21.14 12.79L21.1375 12.805C21.7 12.945 22.28 13.08 22.87 13.215L23.98 8.71L26.6925 9.395L25.6025 13.81C26.33 13.98 27.0625 14.1475 27.7775 14.3275L28.8575 9.94L31.57 10.625L30.4575 15.13C33.8825 16.3225 36.3875 18.1125 35.895 21.4375Z" fill="url(#paint1_linear_637_190)" fill-opacity="0.6"/>
</g>
</g>
<defs>
<filter id="filter0_bii_637_190" x="-4" y="-4" width="58" height="58" filterUnits="userSpaceOnUse" color-interpolation-filters="sRGB">
<feFlood flood-opacity="0" result="BackgroundImageFix"/>
<feGaussianBlur in="BackgroundImageFix" stdDeviation="2"/>
<feComposite in2="SourceAlpha" operator="in" result="effect1_backgroundBlur_637_190"/>
<feBlend mode="normal" in="SourceGraphic" in2="effect1_backgroundBlur_637_190" result="shape"/>
<feColorMatrix in="SourceAlpha" type="matrix" values="0 0 0 0 0 0 0 0 0 0 0 0 0 0 0 0 0 0 127 0" result="hardAlpha"/>
<feOffset dy="-4"/>
<feGaussianBlur stdDeviation="2"/>
<feComposite in2="hardAlpha" operator="arithmetic" k2="-1" k3="1"/>
<feColorMatrix type="matrix" values="0 0 0 0 1 0 0 0 0 1 0 0 0 0 1 0 0 0 0.05 0"/>
<feBlend mode="normal" in2="shape" result="effect2_innerShadow_637_190"/>
<feColorMatrix in="SourceAlpha" type="matrix" values="0 0 0 0 0 0 0 0 0 0 0 0 0 0 0 0 0 0 127 0" result="hardAlpha"/>
<feOffset dx="-4" dy="-4"/>
<feGaussianBlur stdDeviation="2"/>
<feComposite in2="hardAlpha" operator="arithmetic" k2="-1" k3="1"/>
<feColorMatrix type="matrix" values="0 0 0 0 1 0 0 0 0 1 0 0 0 0 1 0 0 0 0.05 0"/>
<feBlend mode="normal" in2="effect2_innerShadow_637_190" result="effect3_innerShadow_637_190"/>
</filter>
<linearGradient id="paint0_linear_637_190" x1="24.1323" y1="8.70996" x2="24.1323" y2="40.37" gradientUnits="userSpaceOnUse">
<stop offset="0.451042" stop-color="#6D3BF7"/>
<stop offset="1" stop-color="#AD8FFF"/>
</linearGradient>
<linearGradient id="paint1_linear_637_190" x1="7.63137" y1="1.31574" x2="43.9472" y2="49.9473" gradientUnits="userSpaceOnUse">
<stop stop-color="#2E4DAB"/>
<stop offset="1" stop-color="#0A1024"/>
</linearGradient>
<clipPath id="clip0_637_190">
<rect width="50" height="50" fill="white"/>
</clipPath>
</defs>
</svg>
