<svg width="205" height="205" viewBox="0 0 205 205" fill="none" xmlns="http://www.w3.org/2000/svg">
<path d="M128.124 76.875H111.04V59.7917C111.04 57.5263 110.14 55.3537 108.539 53.7518C106.937 52.1499 104.764 51.25 102.499 51.25C100.233 51.25 98.0607 52.1499 96.4588 53.7518C94.857 55.3537 93.957 57.5263 93.957 59.7917V76.875H76.8737C74.6083 76.875 72.4357 77.7749 70.8338 79.3768C69.232 80.9787 68.332 83.1513 68.332 85.4167C68.332 87.6821 69.232 89.8547 70.8338 91.4565C72.4357 93.0584 74.6083 93.9583 76.8737 93.9583H93.957V111.042C93.957 113.307 94.857 115.48 96.4588 117.082C98.0607 118.683 100.233 119.583 102.499 119.583C104.764 119.583 106.937 118.683 108.539 117.082C110.14 115.48 111.04 113.307 111.04 111.042V93.9583H128.124C130.389 93.9583 132.562 93.0584 134.164 91.4565C135.765 89.8547 136.665 87.6821 136.665 85.4167C136.665 83.1513 135.765 80.9787 134.164 79.3768C132.562 77.7749 130.389 76.875 128.124 76.875Z" fill="url(#paint0_linear_637_266)"/>
<g filter="url(#filter0_bii_637_266)">
<path d="M162.29 17.0833H42.707C35.9129 17.0901 29.3991 19.792 24.5949 24.5962C19.7908 29.4003 17.0888 35.9142 17.082 42.7083V128.125C17.0888 134.919 19.7908 141.433 24.5949 146.237C29.3991 151.041 35.9129 153.743 42.707 153.75H141.671L173.335 185.414C174.529 186.608 176.051 187.421 177.708 187.751C179.364 188.08 181.082 187.911 182.642 187.265C184.203 186.618 185.537 185.524 186.475 184.119C187.414 182.715 187.915 181.064 187.915 179.375V42.7083C187.909 35.9142 185.207 29.4003 180.402 24.5962C175.598 19.792 169.084 17.0901 162.29 17.0833ZM128.124 93.9583H111.04V111.042C111.04 113.307 110.14 115.48 108.539 117.081C106.937 118.683 104.764 119.583 102.499 119.583C100.233 119.583 98.0607 118.683 96.4588 117.081C94.857 115.48 93.957 113.307 93.957 111.042V93.9583H76.8737C74.6083 93.9583 72.4357 93.0584 70.8338 91.4565C69.232 89.8546 68.332 87.682 68.332 85.4166C68.332 83.1512 69.232 80.9786 70.8338 79.3768C72.4357 77.7749 74.6083 76.875 76.8737 76.875H93.957V59.7916C93.957 57.5262 94.857 55.3536 96.4588 53.7517C98.0607 52.1499 100.233 51.25 102.499 51.25C104.764 51.25 106.937 52.1499 108.539 53.7517C110.14 55.3536 111.04 57.5262 111.04 59.7916V76.875H128.124C130.389 76.875 132.562 77.7749 134.164 79.3768C135.765 80.9786 136.665 83.1512 136.665 85.4166C136.665 87.682 135.765 89.8546 134.164 91.4565C132.562 93.0584 130.389 93.9583 128.124 93.9583Z" fill="url(#paint1_linear_637_266)" fill-opacity="0.6"/>
</g>
<defs>
<filter id="filter0_bii_637_266" x="13.082" y="13.0833" width="178.833" height="178.832" filterUnits="userSpaceOnUse" color-interpolation-filters="sRGB">
<feFlood flood-opacity="0" result="BackgroundImageFix"/>
<feGaussianBlur in="BackgroundImageFix" stdDeviation="2"/>
<feComposite in2="SourceAlpha" operator="in" result="effect1_backgroundBlur_637_266"/>
<feBlend mode="normal" in="SourceGraphic" in2="effect1_backgroundBlur_637_266" result="shape"/>
<feColorMatrix in="SourceAlpha" type="matrix" values="0 0 0 0 0 0 0 0 0 0 0 0 0 0 0 0 0 0 127 0" result="hardAlpha"/>
<feOffset dy="-4"/>
<feGaussianBlur stdDeviation="2"/>
<feComposite in2="hardAlpha" operator="arithmetic" k2="-1" k3="1"/>
<feColorMatrix type="matrix" values="0 0 0 0 1 0 0 0 0 1 0 0 0 0 1 0 0 0 0.05 0"/>
<feBlend mode="normal" in2="shape" result="effect2_innerShadow_637_266"/>
<feColorMatrix in="SourceAlpha" type="matrix" values="0 0 0 0 0 0 0 0 0 0 0 0 0 0 0 0 0 0 127 0" result="hardAlpha"/>
<feOffset dx="-4" dy="-4"/>
<feGaussianBlur stdDeviation="2"/>
<feComposite in2="hardAlpha" operator="arithmetic" k2="-1" k3="1"/>
<feColorMatrix type="matrix" values="0 0 0 0 1 0 0 0 0 1 0 0 0 0 1 0 0 0 0.05 0"/>
<feBlend mode="normal" in2="effect2_innerShadow_637_266" result="effect3_innerShadow_637_266"/>
</filter>
<linearGradient id="paint0_linear_637_266" x1="102.499" y1="51.25" x2="102.499" y2="119.583" gradientUnits="userSpaceOnUse">
<stop offset="0.451042" stop-color="#6D3BF7"/>
<stop offset="1" stop-color="#AD8FFF"/>
</linearGradient>
<linearGradient id="paint1_linear_637_266" x1="43.1559" y1="21.5787" x2="167.233" y2="187.736" gradientUnits="userSpaceOnUse">
<stop stop-color="#2E4DAB"/>
<stop offset="1" stop-color="#0A1024"/>
</linearGradient>
</defs>
</svg>
