<svg width="40" height="25" viewBox="0 0 40 25" fill="none" xmlns="http://www.w3.org/2000/svg">
<ellipse cx="19.7233" cy="12.5694" rx="11.8092" ry="11.7074" fill="url(#paint0_linear_637_307)"/>
<path d="M34.4435 6.44691C33.9677 6.51628 32.9599 6.69666 32.2041 6.87705C31.4484 7.04355 30.5806 7.22393 30.2727 7.27943C28.3692 7.66795 23.3026 9.52726 19.7756 11.1368C15.6467 13.01 12.3996 13.9813 10.2302 13.9952C9.13855 14.009 8.88662 13.9674 8.55071 13.7176L8.15882 13.4263L8.17281 11.7751C8.18681 10.2627 8.25679 9.84639 8.73266 8.26459L8.83063 7.91771L8.14482 8.32009C6.11539 9.48563 2.53238 12.344 1.41269 13.6621C-0.392808 15.8128 -0.462789 17.1449 1.17476 17.7693C2.1125 18.1162 5.21963 17.9774 7.59897 17.4918C11.07 16.7564 14.9749 15.4243 19.3557 13.454C25.7799 10.5679 29.9648 9.67989 31.2104 10.9148C31.4764 11.1784 31.4903 11.3033 31.4204 12.7464C31.3364 14.1062 31.2104 14.8416 30.8465 15.9793C30.7765 16.1875 30.8045 16.2985 30.9025 16.2985C31.1404 16.2985 33.8977 14.4253 35.3673 13.2459C38.5864 10.6789 39.986 8.55598 39.3002 7.29331C38.8943 6.53016 36.6269 6.14165 34.4435 6.44691Z" fill="#330065"/>
<defs>
<linearGradient id="paint0_linear_637_307" x1="27.5961" y1="3.56772" x2="11.4891" y2="22.6974" gradientUnits="userSpaceOnUse">
<stop stop-color="#54FFE2"/>
<stop offset="1" stop-color="#711DFB"/>
</linearGradient>
</defs>
</svg>
