<svg width="166" height="34" viewBox="0 0 166 34" fill="none" xmlns="http://www.w3.org/2000/svg">
<g clip-path="url(#clip0_637_102)">
<path d="M16.1424 16.0949C16.1424 18.5108 15.4233 20.5459 13.98 22.1933C12.4739 23.9193 10.5168 24.7858 8.12109 24.7858C5.71902 24.7858 3.76829 23.9193 2.26208 22.1933C0.818212 20.5459 0.09375 18.5108 0.09375 16.0949C0.09375 13.6722 0.818212 11.6378 2.26208 9.99638C3.78501 8.28645 5.74216 7.4319 8.12109 7.4319C10.5168 7.4319 12.4739 8.28645 13.98 9.99638C15.4233 11.6378 16.1424 13.6722 16.1424 16.0949ZM11.3725 16.0949C11.3725 15.0005 11.1103 14.0769 10.5854 13.3301C9.99814 12.4812 9.17629 12.0596 8.12109 12.0596C7.0655 12.0596 6.24397 12.4812 5.6561 13.3301C5.12578 14.0769 4.86334 15.0005 4.86334 16.0949C4.86334 17.1831 5.12578 18.1178 5.6561 18.8871C6.24397 19.7359 7.0655 20.1582 8.12109 20.1582C9.17629 20.1582 9.99814 19.7359 10.5854 18.8871C11.1103 18.1178 11.3725 17.1831 11.3725 16.0949ZM33.3889 16.0949C33.3889 18.3516 32.7384 20.3234 31.4318 22.0104C30.0341 23.8568 28.2313 24.7858 26.0405 24.7858C24.4942 24.7858 23.1824 24.3357 22.1098 23.4468C22.1098 23.6514 22.1326 24.1474 22.1784 24.9403C22.224 25.7373 22.2465 26.3871 22.2465 26.9002C22.2465 29.7335 21.4021 31.1465 19.7138 31.1465C19.0232 31.1465 18.4587 30.9013 18.0078 30.4167C17.5629 29.9271 17.3402 29.3389 17.3402 28.6445V10.2188C17.3402 9.54623 17.5686 8.96466 18.0249 8.47502C18.4812 7.99042 19.0463 7.74593 19.7195 7.74593C20.7346 7.74593 21.4765 8.25201 21.9444 9.26159C22.9428 8.04195 24.3063 7.4319 26.0348 7.4319C28.2313 7.4319 30.0284 8.34329 31.4318 10.1733C32.7327 11.8662 33.3889 13.8381 33.3889 16.0949ZM28.619 16.0949C28.619 15.0005 28.3515 14.0769 27.8265 13.3301C27.2383 12.4812 26.4171 12.0596 25.3615 12.0596C24.3063 12.0596 23.4848 12.4812 22.8969 13.3301C22.372 14.0769 22.1098 15.0005 22.1098 16.0949C22.1098 17.1831 22.372 18.1178 22.8969 18.8871C23.4848 19.7359 24.3063 20.1582 25.3615 20.1582C26.4171 20.1582 27.2383 19.7359 27.8265 18.8871C28.3515 18.1178 28.619 17.1831 28.619 16.0949ZM50.7435 15.5824C50.7435 16.3795 50.5551 16.9266 50.1784 17.2349C49.8021 17.5366 49.2146 17.6905 48.4215 17.6905H39.8124C39.8124 18.6024 40.2405 19.3031 41.0962 19.7927C41.7865 20.1753 42.6308 20.3696 43.6291 20.3696C44.4055 20.3696 45.3352 20.1121 46.4248 19.6057C47.5146 19.0924 48.216 18.8412 48.5189 18.8412C49.072 18.8412 49.5396 19.0409 49.9277 19.4513C50.3097 19.8563 50.5041 20.3462 50.5041 20.9107C50.5041 22.2151 49.5286 23.2307 47.5769 23.9598C46.0881 24.5066 44.5762 24.7858 43.0305 24.7858C40.5431 24.7858 38.5348 23.9598 37.0002 22.313C35.4652 20.6655 34.6955 18.5967 34.6955 16.0949C34.6955 13.712 35.494 11.6776 37.0912 9.97994C38.6828 8.28075 40.663 7.4319 43.0245 7.4319C45.221 7.4319 47.0579 8.23557 48.5303 9.84258C50.0017 11.4502 50.7435 13.3649 50.7435 15.5824ZM45.9742 14.3849C45.9512 13.6551 45.6147 12.9943 44.9643 12.3953C44.3137 11.7973 43.6237 11.5014 42.8933 11.5014C42.1404 11.5014 41.4384 11.7973 40.7882 12.3953C40.138 12.9943 39.8124 13.6551 39.8124 14.3849H45.9742ZM66.7689 21.9699C66.7689 22.6659 66.5466 23.2525 66.1021 23.7427C65.6511 24.2276 65.086 24.4728 64.3959 24.4728C62.73 24.4728 61.8967 23.1504 61.8967 20.5117C61.8967 20.0044 61.9312 19.2068 61.9995 18.1068C62.0738 17.0122 62.1083 16.2088 62.1083 15.7015C62.1083 12.9027 61.201 11.5014 59.3925 11.5014C57.5838 11.5014 56.6825 12.9027 56.6825 15.7015C56.6825 16.2088 56.711 17.0122 56.7622 18.1068C56.8195 19.2068 56.8479 20.0044 56.8479 20.5117C56.8479 23.1504 56.0264 24.4728 54.3836 24.4728C53.6929 24.4728 53.1285 24.2276 52.6832 23.7427C52.2326 23.2525 52.01 22.6659 52.01 21.9699V10.2138C52.01 9.52286 52.2326 8.93689 52.6832 8.46363C53.1285 7.98473 53.699 7.74593 54.3893 7.74593C55.5302 7.74593 56.323 8.25201 56.7679 9.26159C57.5382 8.04195 58.9015 7.4319 60.8529 7.4319C62.6614 7.4319 64.0992 7.91022 65.1547 8.86199C66.233 9.88297 66.7689 11.2843 66.7689 13.0685V21.9699ZM81.7331 21.4635C81.7331 22.5404 81.0326 23.395 79.6284 24.0226C78.5164 24.5292 77.3079 24.7895 76.0858 24.7858C73.683 24.7858 71.7326 23.9193 70.2266 22.1933C68.7829 20.5459 68.0584 18.5108 68.0584 16.0949C68.0584 13.6722 68.7945 11.6268 70.272 9.95094C71.7494 8.27001 73.683 7.4319 76.0858 7.4319C77.4719 7.4319 78.6642 7.63698 79.6576 8.04195C81.043 8.58908 81.7331 9.44356 81.7331 10.6064C81.7331 11.193 81.551 11.7118 81.1855 12.1622C80.8207 12.6067 80.3522 12.8347 79.7826 12.8347C79.3938 12.8347 78.8346 12.7037 78.105 12.4478C77.3747 12.185 76.7934 12.0596 76.3657 12.0596C75.2298 12.0596 74.3453 12.4642 73.7122 13.2732C73.1245 14.0029 72.8277 14.9377 72.8277 16.0949C72.8277 17.1831 73.0901 18.1068 73.6215 18.8533C74.2079 19.7254 75.036 20.1582 76.091 20.1582C76.5595 20.1582 77.1978 20.0215 78.0136 19.7415C78.8301 19.469 79.4178 19.3265 79.7826 19.3265C80.3133 19.3265 80.7689 19.5539 81.1577 19.9987C81.54 20.4489 81.7331 20.9328 81.7331 21.4635ZM99.0709 21.9699C99.0709 22.6659 98.8487 23.2525 98.4035 23.7427C97.9531 24.2276 97.3829 24.4728 96.6915 24.4728C95.6534 24.4728 94.9121 23.9651 94.4669 22.9565C93.469 24.1765 92.105 24.7858 90.3768 24.7858C88.1638 24.7858 86.3494 23.8568 84.9452 22.0104C83.6674 20.3234 83.0239 18.3516 83.0239 16.0949C83.0239 13.8381 83.6674 11.8662 84.9452 10.1733C86.3721 8.34329 88.18 7.4319 90.3768 7.4319C92.105 7.4319 93.469 8.04195 94.4669 9.26159C94.9121 8.25201 95.6534 7.74593 96.6915 7.74593C97.3654 7.74593 97.9305 7.99042 98.3873 8.47502C98.8428 8.96466 99.0709 9.54053 99.0709 10.2138V21.9699ZM94.3017 16.0949C94.3017 15.0005 94.0399 14.0769 93.5144 13.3301C92.9039 12.4812 92.0823 12.0596 91.05 12.0596C89.9944 12.0596 89.1734 12.4812 88.585 13.3301C88.055 14.0769 87.7932 15.0005 87.7932 16.0949C87.7932 17.1831 88.0485 18.1178 88.5559 18.8871C89.1618 19.7359 89.9944 20.1582 91.05 20.1582C92.105 20.1582 92.9266 19.7359 93.5144 18.8871C94.0399 18.1178 94.3017 17.1831 94.3017 16.0949ZM111.24 9.89941C111.24 10.9195 110.744 11.6204 109.751 12.002C108.833 12.3103 107.919 12.6244 107.007 12.9482C106.008 13.5187 105.512 14.5785 105.512 16.1176V21.9699C105.512 22.6659 105.283 23.2525 104.839 23.7427C104.388 24.2276 103.818 24.4728 103.127 24.4728C102.432 24.4728 101.861 24.2276 101.417 23.7427C100.965 23.2525 100.743 22.6659 100.743 21.9699V10.2138C100.743 9.52286 100.965 8.93689 101.41 8.46363C101.861 7.98473 102.432 7.74593 103.122 7.74593C104.263 7.74593 105.055 8.25201 105.501 9.26159C106.522 8.04195 107.618 7.4319 108.799 7.4319C109.471 7.4319 110.048 7.67647 110.527 8.161C111 8.65129 111.24 9.23253 111.24 9.89941ZM123.683 10.1161C123.683 11.176 123.267 11.8428 122.44 12.1284C122.034 12.2705 121.183 12.3445 119.889 12.3445V21.9699C119.889 22.6659 119.66 23.2525 119.217 23.7427C118.765 24.2276 118.195 24.4728 117.505 24.4728C116.832 24.4728 116.26 24.2276 115.804 23.7427C115.348 23.2525 115.12 22.6659 115.12 21.9699V12.3445C114.138 12.3445 113.425 12.2191 112.975 11.9746C112.359 11.6325 112.055 11.0111 112.055 10.1161C112.055 9.22178 112.369 8.6118 113.002 8.28645C113.431 8.047 114.138 7.9222 115.12 7.9222V5.8818C115.12 3.48258 115.912 2.28592 117.505 2.28592C119.09 2.28592 119.889 3.48258 119.889 5.8818V7.9222C121.183 7.9222 122.034 7.99612 122.44 8.13828C123.267 8.42323 123.683 9.085 123.683 10.1161ZM162 7.22217C161.987 5.75926 159.281 5.09522 152.276 5.09522C135.84 5.09522 131.67 4.3939 127.208 -0.296875C129.086 2.51968 130.113 7.8025 147.485 7.53962C165.61 7.26068 154.553 12.2083 151.335 17.7982C157.137 12.625 161.982 9.21518 162 7.24334V7.22217ZM138.904 22.2441C138.903 23.6039 137.784 24.7226 136.422 24.723C135.047 24.723 133.935 23.6123 133.935 22.2441C133.935 22.2435 133.935 22.2428 133.935 22.2422C133.935 20.8801 135.057 19.7593 136.421 19.7593C136.422 19.7593 136.422 19.7593 136.422 19.7593C137.793 19.7593 138.904 20.8703 138.904 22.2441ZM150.223 22.2441C150.222 23.6039 149.102 24.7226 147.741 24.723C146.367 24.723 145.254 23.6123 145.254 22.2441C145.254 22.2435 145.254 22.2428 145.254 22.2422C145.254 20.8801 146.376 19.7593 147.74 19.7593C147.74 19.7593 147.74 19.7593 147.741 19.7593C149.111 19.7593 150.223 20.8703 150.223 22.2441Z" fill="#8E9FC5"/>
</g>
<defs>
<clipPath id="clip0_637_102">
<rect width="166" height="34" fill="white"/>
</clipPath>
</defs>
</svg>
