<svg width="136" height="51" viewBox="0 0 136 51" fill="none" xmlns="http://www.w3.org/2000/svg">
<g clip-path="url(#clip0_637_155)">
<path fill-rule="evenodd" clip-rule="evenodd" d="M23.6348 -0.00292969C36.6865 -0.00292969 47.281 10.6867 47.281 23.8557C47.281 37.0247 36.6865 47.7172 23.6348 47.7172C10.583 47.7172 0 37.0247 0 23.8557C0 10.6867 10.583 -0.00292969 23.6348 -0.00292969Z" fill="#8E9FC5"/>
<path fill-rule="evenodd" clip-rule="evenodd" d="M68.3465 44.5992H66.3726V38.5344C66.3726 36.7054 65.7655 35.788 64.5483 35.788C63.0291 35.788 62.2608 36.9115 62.2608 39.1325V44.5992H60.3099V38.5344C60.3099 36.7054 59.6769 35.788 58.4224 35.788C56.9031 35.788 56.1579 36.987 56.1579 39.3764V44.5992H54.207V34.3567H56.1579V35.7735C56.8542 34.6006 57.8153 34.0228 59.018 34.0373C59.6769 34.049 60.2697 34.2435 60.802 34.6122C61.2825 34.9431 61.6249 35.3641 61.8407 35.8635C62.5226 34.6615 63.5614 34.049 64.9281 34.0373C67.207 34.0112 68.3465 35.4164 68.3465 38.2499V44.5992Z" fill="#8E9FC5"/>
<path fill-rule="evenodd" clip-rule="evenodd" d="M78.6649 39.4896C78.6649 38.3777 78.3599 37.4835 77.7413 36.8099C77.1198 36.1335 76.3227 35.788 75.3473 35.788C74.438 35.788 73.6784 36.1451 73.0569 36.8448C72.4383 37.5502 72.1333 38.4328 72.1333 39.4664C72.1333 40.5493 72.4383 41.458 73.0569 42.1606C73.6899 42.8631 74.4755 43.2086 75.425 43.2086C76.386 43.2086 77.1572 42.8631 77.7643 42.1722C78.3743 41.4725 78.6649 40.5754 78.6649 39.4896ZM80.5122 44.5993H78.5498V42.9386C77.6147 44.2944 76.4234 44.9709 74.979 44.9709C73.6151 44.9709 72.4613 44.4454 71.5492 43.4002C70.637 42.3522 70.1709 41.0486 70.1709 39.4896C70.1709 37.919 70.637 36.6183 71.5492 35.5964C72.4757 34.5599 73.6266 34.0374 75.0308 34.0374C76.5759 34.0374 77.7528 34.7399 78.5498 36.1335V34.3567H80.5122V44.5993Z" fill="#8E9FC5"/>
<path fill-rule="evenodd" clip-rule="evenodd" d="M91.8173 44.5993H89.8549V38.5344C89.8549 37.5764 89.6909 36.8854 89.36 36.4615C89.0205 36.0144 88.4508 35.788 87.6767 35.788C86.7531 35.788 86.0827 36.0667 85.677 36.6299C85.2598 37.1786 85.0583 38.099 85.0583 39.3764V44.5993H83.1104V34.3567H85.0583V35.7735C85.818 34.6122 86.8797 34.0374 88.2119 34.0374C90.6145 34.0374 91.8173 35.4425 91.8173 38.2499V44.5993Z" fill="#8E9FC5"/>
<path fill-rule="evenodd" clip-rule="evenodd" d="M102.147 39.4896C102.147 38.3777 101.845 37.4835 101.209 36.8099C100.591 36.1335 99.7936 35.788 98.8297 35.788C97.9205 35.788 97.1493 36.1451 96.5393 36.8448C95.9207 37.5502 95.6013 38.4328 95.6013 39.4664C95.6013 40.5493 95.9207 41.458 96.5393 42.1606C97.1608 42.8631 97.9464 43.2086 98.9074 43.2086C99.8569 43.2086 100.642 42.8631 101.25 42.1722C101.845 41.4725 102.147 40.5754 102.147 39.4896ZM103.995 44.5993H102.035V42.9386C101.097 44.2944 99.9087 44.9709 98.4643 44.9709C97.0832 44.9709 95.9437 44.4454 95.0201 43.4002C94.1108 42.3522 93.6533 41.0486 93.6533 39.4896C93.6533 37.919 94.1108 36.6183 95.0345 35.5964C95.9437 34.5599 97.109 34.0374 98.5017 34.0374C100.047 34.0374 101.224 34.7399 102.035 36.1335V34.3567H103.995V44.5993Z" fill="#8E9FC5"/>
<path fill-rule="evenodd" clip-rule="evenodd" d="M114.339 39.4664C114.339 38.6099 114.045 37.8057 113.452 37.0509C112.794 36.209 111.985 35.788 111.021 35.788C110.046 35.788 109.263 36.1451 108.656 36.8593C108.083 37.5386 107.807 38.4067 107.807 39.4664C107.807 40.6015 108.083 41.5218 108.667 42.1983C109.249 42.8747 110.034 43.2086 111.021 43.2086C111.933 43.2086 112.719 42.8254 113.378 42.056C114.022 41.3041 114.339 40.436 114.339 39.4664ZM116.186 45.2002C116.186 47.1802 115.795 48.6492 114.983 49.5812C114.186 50.5276 112.935 51.0009 111.211 51.0009C109.769 51.0009 108.59 50.5654 107.655 49.6944C106.731 48.8409 106.273 47.7173 106.273 46.3499H108.224C108.224 47.2441 108.503 47.9496 109.059 48.4576C109.628 48.9802 110.402 49.2473 111.401 49.2473C113.288 49.2473 114.224 48.0367 114.224 45.6096V42.9647C113.225 44.2944 111.985 44.9709 110.541 44.9709C109.174 44.9709 108.046 44.4454 107.16 43.4002C106.285 42.3522 105.842 41.0486 105.842 39.4896C105.842 37.919 106.285 36.6183 107.16 35.5964C108.031 34.5599 109.159 34.0374 110.541 34.0374C112.086 34.0374 113.314 34.7399 114.224 36.1567V34.3567H116.186V45.2002Z" fill="#8E9FC5"/>
<path fill-rule="evenodd" clip-rule="evenodd" d="M126.087 38.3283C125.96 37.5619 125.641 36.9377 125.111 36.4615C124.591 35.9912 123.934 35.7503 123.149 35.7503C122.389 35.7503 121.716 35.9767 121.135 36.4528C120.565 36.9232 120.185 37.5502 120.021 38.3283H126.087ZM128.023 42.1606C127.58 42.988 126.921 43.6557 126.061 44.1783C125.186 44.7009 124.263 44.9709 123.287 44.9709C121.705 44.9709 120.441 44.4599 119.466 43.4496C118.505 42.4422 118.021 41.1241 118.021 39.4896C118.021 37.9712 118.465 36.6938 119.388 35.6603C120.338 34.5861 121.566 34.0374 123.086 34.0374C124.619 34.0374 125.845 34.5599 126.743 35.6196C127.592 36.6183 128.023 37.9073 128.023 39.4664V39.8089H120.021C120.021 40.8193 120.315 41.6496 120.907 42.2883C121.503 42.9125 122.274 43.2318 123.212 43.2318C124.631 43.2318 125.704 42.5815 126.441 41.2925L128.023 42.1606Z" fill="#8E9FC5"/>
<path fill-rule="evenodd" clip-rule="evenodd" d="M135.997 34.3567L135.542 36.3483C135.2 36.0667 134.759 35.9273 134.238 35.9273C133.464 35.9273 132.857 36.2612 132.414 36.9232C131.997 37.5386 131.796 38.3167 131.796 39.2748V44.5993H129.845V34.3567H131.732V36.0957C132.478 34.7283 133.39 34.0374 134.44 34.0374C134.897 34.0374 135.418 34.1506 135.997 34.3567Z" fill="#8E9FC5"/>
<path fill-rule="evenodd" clip-rule="evenodd" d="M63.7654 13.2676C65.207 13.2676 66.3724 12.0918 66.3724 10.6344C66.3724 9.19443 65.207 8.01863 63.7654 8.01863C62.3325 8.01863 61.1672 9.19443 61.1672 10.6344C61.1672 12.0918 62.3325 13.2676 63.7654 13.2676ZM64.246 22.7699C65.7911 22.7699 67.0428 21.507 67.0428 19.9596C67.0428 18.4034 65.7911 17.1376 64.246 17.1376C62.7152 17.1376 61.4607 18.4034 61.4607 19.9596C61.4607 21.507 62.7152 22.7699 64.246 22.7699ZM54.624 27.7547V3.08606H65.2588C67.8657 3.08606 69.854 3.73928 71.2322 5.04283C72.412 6.15476 73.0047 7.57153 73.0047 9.26991C73.0047 11.4793 71.9171 13.0876 69.7418 14.1096C71.3962 14.4928 72.6882 15.2244 73.6003 16.3073C74.5527 17.4076 75.0189 18.7983 75.0189 20.485C75.0189 22.6566 74.2966 24.3812 72.8407 25.6441C71.2437 27.0492 68.8785 27.7547 65.7508 27.7547H54.624Z" fill="#8E9FC5"/>
<path fill-rule="evenodd" clip-rule="evenodd" d="M78.1465 27.7547V3.08606H85.6881V27.7547H78.1465Z" fill="#8E9FC5"/>
<path fill-rule="evenodd" clip-rule="evenodd" d="M90.0703 27.7547V3.08606H97.6263V21.6086H105.286V27.7547H90.0703Z" fill="#8E9FC5"/>
<path fill-rule="evenodd" clip-rule="evenodd" d="M107.781 27.7547V3.08606H115.326V21.6086H122.997V27.7547H107.781Z" fill="#8E9FC5"/>
<path fill-rule="evenodd" clip-rule="evenodd" d="M11.99 30.5011H11.9756C10.3413 30.3327 9.07812 28.9392 9.07812 27.2553C9.07812 25.4524 10.5197 23.9979 12.3065 23.9979C13.4201 23.9979 14.3926 24.5728 14.9767 25.4408L15.1034 25.6673L14.9393 25.7457C13.3309 26.6282 12.1914 28.2773 12.0015 30.1934L11.99 30.5011Z" fill="#312A5D"/>
<path fill-rule="evenodd" clip-rule="evenodd" d="M35.8379 30.4111L35.8264 30.205C35.6221 28.2482 34.4711 26.5644 32.8253 25.6673L32.7764 25.644L32.8886 25.4147C33.4698 24.5728 34.4309 23.9979 35.5329 23.9979C37.2938 23.9979 38.7124 25.4408 38.7124 27.2147C38.7124 28.8753 37.4607 30.2456 35.8638 30.4111H35.8379Z" fill="#312A5D"/>
<path fill-rule="evenodd" clip-rule="evenodd" d="M17.5976 34.8415L17.2293 34.8153C15.2037 34.6121 13.6211 32.8731 13.6211 30.7799C13.6211 28.5444 15.4195 26.7183 17.635 26.7183C18.7486 26.7183 19.747 27.177 20.4836 27.9028L20.8491 28.3644L20.8001 28.3905C18.8493 29.4531 17.5314 31.5318 17.5314 33.9328C17.5314 34.1505 17.5314 34.3711 17.5573 34.5715L17.5976 34.8415Z" fill="#312A5D"/>
<path fill-rule="evenodd" clip-rule="evenodd" d="M29.9912 34.7892H29.8617L29.9279 34.3944C29.9509 34.1912 29.9509 33.9734 29.9509 33.7673C29.9509 31.4302 28.6619 29.3864 26.7628 28.3412L26.7139 28.3267L26.8635 28.1089C27.6087 27.2031 28.7395 26.6283 29.9912 26.6283C32.2183 26.6283 34.0397 28.4544 34.0397 30.7044C34.0397 32.966 32.2183 34.7892 29.9912 34.7892Z" fill="#312A5D"/>
<path fill-rule="evenodd" clip-rule="evenodd" d="M17.7853 25.4525C15.774 25.4525 14.1396 23.8063 14.1396 21.7741C14.1396 19.7564 15.774 18.1102 17.7853 18.1102C18.9132 18.1102 19.9261 18.6183 20.5821 19.437L20.7375 19.6286L20.4843 19.8202C19.3074 20.8015 18.5449 22.2851 18.5449 23.9457C18.5449 24.3173 18.5823 24.6744 18.66 25.0315L18.7377 25.3131L18.5219 25.3741C18.2802 25.4292 18.0414 25.4525 17.7853 25.4525Z" fill="#312A5D"/>
<path fill-rule="evenodd" clip-rule="evenodd" d="M29.6113 25.2493C29.4703 25.2493 29.3437 25.2493 29.2171 25.2348L29.0157 25.197L29.0531 25.0316C29.1279 24.6745 29.1682 24.3174 29.1682 23.9458C29.1682 22.108 28.2302 20.4735 26.826 19.5125L26.4951 19.3093L26.6994 19.0393C27.3957 18.2003 28.4316 17.6487 29.6113 17.6487C31.6859 17.6487 33.3692 19.3616 33.3692 21.4548C33.3692 23.5509 31.6859 25.2493 29.6113 25.2493Z" fill="#312A5D"/>
<path fill-rule="evenodd" clip-rule="evenodd" d="M22.6079 18.7983L22.5474 18.7838C20.9534 18.2729 19.7852 16.769 19.7852 14.9922C19.7852 12.7974 21.5461 11.0206 23.7243 11.0206C25.8881 11.0206 27.6605 12.7974 27.6605 14.9922C27.6605 16.6296 26.6621 18.0435 25.255 18.6474L25.1025 18.6967L24.5846 18.6183C24.4062 18.6067 24.2307 18.5922 24.0523 18.5922C23.6869 18.5922 23.3186 18.6329 22.9762 18.7083L22.6079 18.7983Z" fill="#312A5D"/>
<path fill-rule="evenodd" clip-rule="evenodd" d="M23.862 27.6502C25.8761 27.6502 27.522 25.9896 27.522 23.9457C27.522 21.9019 25.8761 20.2412 23.862 20.2412C21.8392 20.2412 20.1904 21.9019 20.1904 23.9457C20.1904 25.9896 21.8392 27.6502 23.862 27.6502Z" fill="#312A5D"/>
<path fill-rule="evenodd" clip-rule="evenodd" d="M23.7873 38.5837C26.3194 38.5837 28.394 36.5021 28.394 33.9327C28.394 31.3692 26.3194 29.2847 23.7873 29.2847C21.2437 29.2847 19.1807 31.3692 19.1807 33.9327C19.1807 36.5021 21.2437 38.5837 23.7873 38.5837Z" fill="#312A5D"/>
</g>
<defs>
<clipPath id="clip0_637_155">
<rect width="136" height="51" fill="white"/>
</clipPath>
</defs>
</svg>
