<svg width="70" height="70" viewBox="0 0 70 70" fill="none" xmlns="http://www.w3.org/2000/svg">
<g clip-path="url(#clip0_637_139)">
<path d="M4.97559 34.9991C4.97559 46.8837 11.8825 57.1544 21.898 62.0214L7.57516 22.7797C5.90915 26.5138 4.97559 30.6462 4.97559 34.9991Z" fill="#8E9FC5"/>
<path d="M55.2712 33.484C55.2712 29.7733 53.9383 27.2035 52.7951 25.2033C51.273 22.73 49.8464 20.6356 49.8464 18.1623C49.8464 15.4023 51.9398 12.8331 54.8884 12.8331C55.0216 12.8331 55.1478 12.8496 55.2775 12.857C49.9355 7.96311 42.8184 4.9751 35.0014 4.9751C24.5117 4.9751 15.2829 10.3569 9.91406 18.5086C10.6185 18.5297 11.2824 18.5445 11.8463 18.5445C14.9869 18.5445 19.8484 18.1635 19.8484 18.1635C21.467 18.0681 21.6579 20.4453 20.041 20.6367C20.041 20.6367 18.4144 20.8281 16.6044 20.923L27.5386 53.4454L34.1095 33.7388L29.4314 20.9218C27.8146 20.827 26.2828 20.6356 26.2828 20.6356C24.6648 20.5407 24.8545 18.0669 26.4725 18.1623C26.4725 18.1623 31.4311 18.5434 34.3815 18.5434C37.5216 18.5434 42.3836 18.1623 42.3836 18.1623C44.0034 18.0669 44.1936 20.4442 42.5762 20.6356C42.5762 20.6356 40.9461 20.827 39.1396 20.9218L49.9904 53.198L52.9853 43.1902C54.2834 39.0373 55.2712 36.0544 55.2712 33.484Z" fill="#8E9FC5"/>
<path d="M35.5283 37.6255L26.5195 63.8029C29.2094 64.5936 32.0541 65.0261 35.0016 65.0261C38.4981 65.0261 41.8513 64.4216 44.9725 63.3241C44.892 63.1955 44.8188 63.059 44.7588 62.9104L35.5283 37.6255Z" fill="#8E9FC5"/>
<path d="M61.3482 20.5939C61.4773 21.5503 61.5504 22.5769 61.5504 23.6813C61.5504 26.7281 60.9814 30.1532 59.2674 34.4358L50.0957 60.9526C59.0222 55.7473 65.0264 46.0765 65.0264 34.9997C65.027 29.7796 63.6935 24.8708 61.3482 20.5939Z" fill="#8E9FC5"/>
<path d="M35.0011 0C15.702 0 0 15.7005 0 34.9991C0 54.3001 15.702 70 35.0011 70C54.2997 70 70.004 54.3001 70.004 34.9991C70.0034 15.7005 54.2997 0 35.0011 0ZM35.0011 68.3957C16.587 68.3957 1.60488 53.414 1.60488 34.9991C1.60488 16.5855 16.5864 1.60484 35.0011 1.60484C53.4147 1.60484 68.3957 16.5855 68.3957 34.9991C68.3957 53.414 53.4147 68.3957 35.0011 68.3957Z" fill="#8E9FC5"/>
</g>
<defs>
<clipPath id="clip0_637_139">
<rect width="70" height="70" fill="white"/>
</clipPath>
</defs>
</svg>
