<svg width="167" height="60" viewBox="0 0 167 60" fill="none" xmlns="http://www.w3.org/2000/svg">
<g clip-path="url(#clip0_637_120)">
<path d="M39.4825 11.3565C36.43 9.46791 33.5487 8.72542 30.6688 6.83811C28.8822 5.63769 26.4056 2.77761 24.3303 0.318542C23.9276 4.26391 22.7177 5.86534 21.3351 7.0095C18.3965 9.29717 16.5525 9.98406 14.0179 11.3572C11.886 12.4431 0.305664 19.3055 0.305664 34.0599C0.305664 48.8162 12.808 59.6815 26.6922 59.6815C40.5785 59.6815 52.6195 49.6732 52.6195 34.5178C52.6195 19.3624 41.3271 12.5 39.4825 11.3565ZM39.8167 54.2996C39.528 54.5861 36.8774 56.4152 33.7668 56.7017C30.6549 56.9883 26.4497 57.1597 23.9145 54.872C23.5118 54.4716 23.6271 53.8999 23.9145 53.6716C24.2031 53.4419 24.4338 53.2705 24.7791 53.2705C25.1244 53.2705 25.0678 53.2705 25.2404 53.385C26.3917 54.2996 28.1203 55.0434 31.8076 55.0434C35.4961 55.0434 38.0881 54.0137 39.2394 53.1561C39.7593 52.7557 39.9887 53.0991 40.046 53.3281C40.104 53.5564 40.2193 53.8992 39.8167 54.2996ZM29.733 49.0949C30.3676 48.5232 31.4049 47.6086 32.3836 47.2076C33.3622 46.8079 33.8822 46.8648 34.8035 46.8648C35.7248 46.8648 36.7041 46.9211 37.3967 47.3797C38.0881 47.8363 38.4914 48.8659 38.7214 49.4384C38.952 50.0101 38.7214 50.3522 38.2614 50.5812C37.8581 50.8108 37.8001 50.6957 37.3967 49.9532C36.9934 49.2087 36.6468 48.4656 34.6308 48.4656C32.6136 48.4656 31.9809 49.1525 31.0009 49.9532C30.0216 50.7539 29.6763 51.0398 29.331 50.5812C28.985 50.1246 29.0997 49.6667 29.733 49.0949ZM45.0019 49.5528C42.9279 49.3814 38.7787 42.9757 36.1281 42.8612C32.7875 42.7467 25.5271 49.7811 19.8239 49.7811C16.368 49.7811 15.33 49.267 14.1781 48.5232C12.4495 47.3221 11.5855 45.4917 11.6428 42.9757C11.7015 38.5148 15.9067 34.3399 21.2065 34.2823C27.9477 34.2267 32.6142 40.9177 36.0141 40.8601C38.8947 40.8032 44.4259 35.1988 47.1331 35.1988C50.0137 35.1988 50.8217 38.1727 50.8217 39.9455C50.8217 41.7184 50.2444 44.9206 48.8617 46.9217C47.4785 48.9235 46.6145 49.6667 45.0019 49.5528Z" fill="#8E9FC5"/>
<path d="M118.797 27.1778H114.013L114.022 36.0633C114.022 38.6604 112.899 40.7615 110.284 40.7615C107.668 40.7615 106.536 38.6604 106.536 36.0633V27.1863H101.764L101.763 36.0633C101.763 41.1949 105.086 45.3536 110.256 45.3536C115.424 45.3536 118.796 41.1949 118.796 36.0633L118.797 27.1778ZM161.933 21.7637H166.694V44.8947H161.933V21.7637ZM97.8725 26.9853C93.7689 26.0447 91.1803 30.0916 91.0733 30.3087C91.0198 30.4149 91.0179 30.4775 90.8355 30.4728C90.6865 30.469 90.6683 30.3087 90.6683 30.3087L90.1592 27.2119H85.8961V44.8786H90.676V35.3161C90.676 34.5367 92.7956 30.7895 96.9029 31.7538C98.9805 32.2411 99.8612 33.1154 99.8612 33.1154V27.7334C99.0923 27.3362 98.565 27.1437 97.8725 26.9853ZM125.284 50.6986V44.3419L125.285 44.3429V41.9629C125.285 41.9629 125.294 41.7723 125.466 41.7695C125.62 41.7676 125.654 41.87 125.692 41.9629C126.054 42.857 128.047 46.2686 132.471 45.1981C136.432 44.0906 139.336 40.4809 139.336 36.1951C139.336 31.0312 135.116 26.8422 129.913 26.8422C124.709 26.8422 120.49 31.0312 120.49 36.1951V50.6976L125.284 50.6986ZM129.918 31.4627C132.552 31.4627 134.688 33.5819 134.688 36.1951C134.688 38.8111 132.552 40.9313 129.918 40.9313C127.283 40.9313 125.149 38.8121 125.149 36.1951C125.148 33.5819 127.283 31.4627 129.918 31.4627ZM155.209 44.8881H160.002V36.1951C160.002 31.0312 155.785 26.8431 150.58 26.8431C145.376 26.8431 141.157 31.0312 141.157 36.1951C141.157 40.4818 144.061 44.0906 148.022 45.1981C152.446 46.2686 154.438 42.858 154.801 41.9629C154.839 41.87 154.872 41.7685 155.027 41.7704C155.201 41.7723 155.207 41.9629 155.207 41.9629M155.344 36.1951C155.344 38.8111 153.209 40.9313 150.576 40.9313C147.941 40.9313 145.806 38.8121 145.806 36.1951C145.806 33.5819 147.941 31.4627 150.576 31.4627C153.208 31.4627 155.344 33.5819 155.344 36.1951ZM70.9204 44.8511H65.4834V21.7551H71.3178C78.3825 21.7551 83.7412 23.0418 83.7412 33.3022C83.7412 43.4658 78.0644 44.8511 70.9204 44.8511ZM72.2195 25.7584H70.2976V40.8431L72.2711 40.8933C76.3192 40.8933 78.926 40.5273 78.926 33.3012C78.926 26.3737 76.6249 25.7584 72.2195 25.7584V25.7584Z" fill="#8E9FC5"/>
</g>
<defs>
<clipPath id="clip0_637_120">
<rect width="167" height="60" fill="white"/>
</clipPath>
</defs>
</svg>
