<svg width="200" height="42" viewBox="0 0 200 42" fill="none" xmlns="http://www.w3.org/2000/svg">
<g clip-path="url(#clip0_637_126)">
<path d="M13.8718 20.8858L19.1887 12.3055H24.2195L16.1256 24.0404M14.881 25.8448L25.3338 41.0683H20.3031L12.6815 29.4553L5.03077 41.0683H0L10.4528 26.0246L1.08462 12.3055H6.14513L12.6815 22.806M30.6523 24.1894C30.6523 23.542 30.6738 22.9484 30.7046 22.3809L30.7113 22.1734H30.7169C30.878 19.6217 31.3595 17.892 32.1738 17.0141C33.1877 15.9211 35.4015 15.374 38.8159 15.374C42.2097 15.374 44.419 15.8407 45.4431 16.7729C46.3913 17.6364 46.8949 19.445 46.9651 22.1734H51.2185C50.9554 18.3873 50.1662 15.8079 48.8472 14.4419C47.2 12.7373 43.7262 11.8845 38.4241 11.8845C33.5641 11.8845 30.301 12.8669 28.6344 14.8327C26.9672 16.7985 26.1338 20.6497 26.1338 26.3852C26.1338 32.5843 26.9621 36.6506 28.6195 38.5862C30.2759 40.5223 33.7554 41.4898 39.0564 41.4898C43.6154 41.4898 46.8031 40.8931 48.621 39.6997C50.4385 38.5063 51.3472 36.415 51.3472 33.4264L51.3174 32.3733H47.0097V33.2758C47.0097 35.2416 46.5021 36.5205 45.4882 37.1121C44.4744 37.7042 42.2697 37.9998 38.8759 37.9998C35.301 37.9998 33.0267 37.3779 32.0528 36.1348C31.079 34.8907 30.5923 32.0025 30.5923 27.4695H51.3174V25.2123C51.3174 24.8635 51.3139 24.5224 51.3072 24.1894H30.6523Z" fill="#8E9FC5"/>
<path d="M30.7107 22.1739L30.7051 22.3804C30.7087 22.3112 30.7128 22.2426 30.7174 22.1739H30.7107ZM69.2271 15.374C71.9184 15.374 73.7353 15.8002 74.6794 16.653C75.6235 17.5058 76.0953 19.1653 76.0953 21.632V22.1734H80.3087C80.2866 18.185 79.5625 15.4724 78.1287 14.0505C76.6728 12.6061 73.8861 11.8845 69.7692 11.8845C64.6682 11.8845 61.4753 13.3591 60.1902 16.3068L60.0697 16.2166L60.1902 12.3055H56.1235V22.1734H60.4389C60.9743 17.6456 63.8979 15.374 69.2271 15.374Z" fill="#8E9FC5"/>
<path fill-rule="evenodd" clip-rule="evenodd" d="M56.124 24.1895H60.3415V41.0683H56.124V24.1895ZM76.0958 24.1895H80.3133V41.0683H76.0958V24.1895Z" fill="#8E9FC5"/>
<path d="M90.9329 18.2623V3.91163H111.508V0H86.2939V22.174H110.32C110.452 20.6701 110.66 19.3702 110.937 18.2623H90.9329Z" fill="#8E9FC5"/>
<path fill-rule="evenodd" clip-rule="evenodd" d="M86.2939 24.1895H90.9329V41.0683H86.2939V24.1895Z" fill="#8E9FC5"/>
<path d="M134.599 26.6869C134.599 31.8017 134.152 34.9666 133.259 36.1794C132.365 37.3933 130.04 37.9998 126.285 37.9998C122.55 37.9998 120.235 37.3933 119.341 36.1794C118.448 34.9666 118.001 31.8017 118.001 26.6869C118.001 25.7942 118.015 24.9639 118.043 24.1895H113.624C113.591 24.9798 113.573 25.809 113.573 26.6869C113.573 32.865 114.366 36.8765 115.953 38.722C117.538 40.5674 120.984 41.4899 126.285 41.4899C131.607 41.4899 135.061 40.5674 136.648 38.722C138.234 36.8765 139.028 32.865 139.028 26.6869C139.028 25.809 139.01 24.9798 138.978 24.1895H134.558C134.586 24.9639 134.599 25.7942 134.599 26.6869ZM119.341 17.1944C120.235 15.9815 122.55 15.3741 126.285 15.3741C130.04 15.3741 132.366 15.9815 133.259 17.1944C133.851 17.998 134.245 19.6611 134.445 22.1735H138.853C138.541 18.5113 137.808 16.001 136.648 14.6524C135.061 12.8069 131.607 11.884 126.285 11.884C120.984 11.884 117.539 12.8069 115.953 14.6524C114.794 16.001 114.06 18.5113 113.747 22.1735H118.155C118.356 19.6611 118.75 17.998 119.341 17.1944Z" fill="#8E9FC5"/>
<path fill-rule="evenodd" clip-rule="evenodd" d="M142.999 24.1895H147.216V41.0683H142.999V24.1895Z" fill="#8E9FC5"/>
<path d="M154.266 15.1333C157.479 15.1333 159.085 16.608 159.085 19.5567C159.085 19.8174 159.056 20.3285 158.995 21.0907L158.868 22.174H163.025L163.092 19.8271C163.092 14.3712 160.441 11.6432 155.14 11.6432C151.303 11.6432 148.552 12.9975 146.886 15.705L146.795 15.6148L147.217 12.3055H142.999V22.174H147.295C147.721 17.4859 150.04 15.1333 154.266 15.1333ZM188.735 14.6524C187.148 12.8075 183.694 11.884 178.372 11.884C173.071 11.884 169.626 12.8075 168.04 14.6524C166.881 16.001 166.147 18.5113 165.835 22.1735H170.242C170.443 19.6612 170.837 17.9975 171.429 17.1944C172.323 15.981 174.637 15.3741 178.372 15.3741C182.127 15.3741 184.452 15.981 185.346 17.1944C186.24 18.4083 186.686 21.5722 186.686 26.6869C186.686 31.8017 186.24 34.9661 185.346 36.1794C184.452 37.3928 182.127 37.9998 178.372 37.9998C174.637 37.9998 172.323 37.3928 171.429 36.1794C170.535 34.9661 170.088 31.8017 170.088 26.6869C170.088 25.7937 170.103 24.9639 170.13 24.1895H165.711C165.678 24.9798 165.661 25.8095 165.661 26.6869C165.661 32.865 166.453 36.876 168.04 38.7215C169.626 40.5669 173.071 41.4899 178.372 41.4899C183.694 41.4899 187.148 40.5669 188.735 38.7215C190.322 36.876 191.115 32.865 191.115 26.6869C191.115 20.5093 190.322 16.4978 188.735 14.6524Z" fill="#8E9FC5"/>
<path d="M195.121 13.7386H196.411C196.979 13.7386 197.262 13.5097 197.262 13.0528C197.262 12.7152 197.219 12.497 197.133 12.3977C197.048 12.2988 196.86 12.2497 196.57 12.2497H195.121V13.7386ZM194.598 15.7643V11.7789H196.565C197.378 11.7789 197.784 12.1682 197.784 12.9457C197.784 13.5117 197.602 13.8564 197.236 13.9788C197.564 14.0915 197.728 14.3476 197.728 14.7461V15.7643H197.205V14.8485C197.205 14.4224 197.01 14.2093 196.621 14.2093H195.121V15.7643H194.598ZM196.197 10.6127C195.332 10.6127 194.594 10.9241 193.983 11.5464C193.372 12.1687 193.066 12.9217 193.066 13.8052C193.066 14.6887 193.372 15.4427 193.983 16.0665C194.594 16.6909 195.332 17.0028 196.197 17.0028C197.057 17.0028 197.792 16.6909 198.401 16.0665C199.011 15.4427 199.316 14.6887 199.316 13.8052C199.316 12.9217 199.012 12.1687 198.404 11.5464C197.796 10.9241 197.06 10.6127 196.197 10.6127ZM196.201 10.2439C197.178 10.2439 198.013 10.5922 198.708 11.2878C199.404 11.9833 199.751 12.8228 199.751 13.8052C199.751 14.7876 199.404 15.6276 198.708 16.3252C198.013 17.0223 197.178 17.3711 196.201 17.3711C195.214 17.3711 194.372 17.0238 193.675 16.3272C192.979 15.6317 192.631 14.7912 192.631 13.8052C192.631 12.8228 192.979 11.9833 193.675 11.2878C194.372 10.5922 195.214 10.2439 196.201 10.2439Z" fill="#8E9FC5"/>
</g>
<defs>
<clipPath id="clip0_637_126">
<rect width="200" height="42" fill="white"/>
</clipPath>
</defs>
</svg>
