<svg width="70" height="70" viewBox="0 0 70 70" fill="none" xmlns="http://www.w3.org/2000/svg">
<g clip-path="url(#clip0_637_148)">
<path d="M36.7034 31.0567V55.3234H32.1768V29.3534L36.7034 31.0567Z" fill="#8E9FC5"/>
<path d="M18.6201 28.7934C18.6201 22.5867 22.0035 19.2034 25.9701 19.2034C29.9368 19.2034 30.4968 19.7634 35.0001 22.0267C39.5035 24.29 40.6468 24.85 42.9101 24.85C45.1734 24.85 46.2934 23.1467 46.2934 19.7634H50.2368C50.7968 26.53 46.8535 29.3534 42.8868 29.3534C38.9201 29.3534 37.8001 28.7934 33.8568 26.53C29.9135 24.2667 28.7701 23.7067 26.5068 23.7067C24.2434 23.7067 23.1234 25.41 22.5634 29.3534L18.6201 28.7934Z" fill="#8E9FC5"/>
<path d="M35 70C15.7033 70 0 54.2967 0 35C0 15.7033 15.7033 0 35 0C54.2967 0 70 15.7033 70 35C70 54.2967 54.2967 70 35 70ZM35 2.26333C16.94 2.26333 2.26333 16.94 2.26333 35C2.26333 53.06 16.94 67.7367 35 67.7367C53.06 67.7367 67.7367 53.06 67.7367 35C67.7367 16.94 53.06 2.26333 35 2.26333Z" fill="#8E9FC5"/>
</g>
<defs>
<clipPath id="clip0_637_148">
<rect width="70" height="70" fill="white"/>
</clipPath>
</defs>
</svg>
