<svg width="209" height="37" viewBox="0 0 209 37" fill="none" xmlns="http://www.w3.org/2000/svg">
<g clip-path="url(#clip0_637_106)">
<path d="M142.013 26.8514H160.876V22.7286H148.443C150.158 15.9629 160.662 14.4829 160.662 6.97714C160.662 2.96 157.875 0 151.98 0C148.336 0 145.121 1.05714 142.977 2.11429L144.263 5.92C146.193 4.96857 148.443 4.12286 151.23 4.12286C153.374 4.12286 155.41 5.07429 155.41 7.50571C155.41 13.0029 143.084 13.4257 142.013 26.8514ZM161.412 20.2971H173.523V26.8514H178.347V20.2971H182.419V16.28H178.347V0H174.81L161.412 17.1257V20.2971ZM166.878 16.4914L173.738 7.4C173.738 8.14 173.523 10.4657 173.523 12.58V16.3857H170.308C169.343 16.3857 167.521 16.4914 166.878 16.4914Z" fill="#8E9FC5"/>
<path d="M5.03744 22.8343V14.4829H7.07385C8.8959 14.4829 10.3964 14.6943 11.4682 15.3286C12.54 15.9629 13.1831 17.02 13.1831 18.7114C13.1831 21.5657 11.4682 22.8343 7.39538 22.8343H5.03744ZM0.107179 26.8514H7.28821C15.3267 26.8514 18.2205 23.3629 18.2205 18.5C18.2205 15.2229 16.8272 13.0029 14.3621 11.7343C12.4328 10.6771 9.96769 10.36 6.96667 10.36H5.03744V4.01714H15.8626L17.1487 0.105713H0V26.8514H0.107179ZM21.5431 26.8514H26.259L32.3682 18.1829C33.5472 16.5971 34.4046 15.0114 34.9405 14.1657H35.0477C34.9405 15.3286 34.8333 16.8086 34.8333 18.2886V26.7457H39.6564V7.71714H34.9405L28.8313 16.3857C27.7595 17.9714 26.7949 19.5571 26.259 20.4029H26.1518C26.259 19.24 26.3662 17.76 26.3662 16.28V7.82286H21.5431V26.8514ZM47.9092 26.8514H52.8395V11.7343H58.6272L59.9133 7.71714H42.0144V11.7343H47.9092V26.8514ZM61.6282 36.4714H66.4513V26.8514C67.4159 27.1686 68.3805 27.2743 69.4523 27.2743C75.5615 27.2743 79.5272 23.1514 79.5272 17.2314C79.5272 11.1 75.8831 7.18857 68.9164 7.18857C66.2369 7.18857 63.6646 7.71714 61.521 8.35143V36.4714H61.6282ZM66.4513 22.7286V11.5229C67.2015 11.3114 67.8446 11.2057 68.702 11.2057C72.239 11.2057 74.4897 13.1086 74.4897 17.2314C74.4897 20.9314 72.6677 23.2571 69.0236 23.2571C68.059 23.2571 67.3087 23.0457 66.4513 22.7286ZM82.421 26.8514H87.1369L93.2462 18.1829C94.4251 16.5971 95.2826 15.0114 95.8185 14.1657H95.9256C95.8185 15.3286 95.7113 16.8086 95.7113 18.2886V26.7457H100.534V7.71714H95.8185L89.7092 16.3857C88.6374 17.9714 87.6728 19.5571 87.1369 20.4029H87.0297C87.1369 19.24 87.2441 17.76 87.2441 16.28V7.82286H82.421V26.8514ZM104.393 26.8514H109.323V18.9229H112.217C112.753 18.9229 113.289 19.4514 113.932 20.72L116.397 26.8514H121.649L118.112 19.5571C117.469 18.2886 116.826 17.5486 115.861 17.2314V17.1257C117.469 16.1743 117.683 13.4257 118.648 12.0514C118.969 11.6286 119.398 11.4171 120.041 11.4171C120.363 11.4171 120.791 11.4171 121.113 11.6286V7.50571C120.577 7.29428 119.612 7.18857 119.076 7.18857C117.362 7.18857 116.29 7.82286 115.539 8.88C113.932 11.2057 113.932 15.2229 111.574 15.2229H109.323V7.71714H104.393V26.8514ZM132.581 27.2743C135.261 27.2743 137.726 26.4286 139.226 25.3714L137.833 22.0943C136.439 22.8343 135.153 23.3629 133.331 23.3629C130.009 23.3629 127.865 21.2486 127.865 17.3371C127.865 13.8486 130.009 11.1 133.653 11.1C135.582 11.1 136.975 11.6286 138.369 12.58V8.45714C137.297 7.82286 135.582 7.18857 133.117 7.18857C127.329 7.18857 122.828 11.4171 122.828 17.4429C122.828 22.94 126.257 27.2743 132.581 27.2743Z" fill="#8E9FC5"/>
<path d="M198.39 20.2971C203.641 20.2971 207.929 16.0686 207.929 10.8886C207.929 5.70855 203.641 1.47998 198.39 1.47998C193.138 1.47998 188.851 5.70855 188.851 10.8886C188.958 16.0686 193.138 20.2971 198.39 20.2971Z" stroke="#8E9FC5" stroke-width="1.7688"/>
<path d="M204.391 10.8886H199.139V5.70856H197.746V12.2628H204.391V10.8886Z" fill="#8E9FC5"/>
</g>
<defs>
<clipPath id="clip0_637_106">
<rect width="209" height="37" fill="white"/>
</clipPath>
</defs>
</svg>
