<svg width="70" height="70" viewBox="0 0 70 70" fill="none" xmlns="http://www.w3.org/2000/svg">
<path d="M23.3337 32.0833C24.9445 32.0833 26.2503 30.7775 26.2503 29.1667C26.2503 27.5558 24.9445 26.25 23.3337 26.25C21.7228 26.25 20.417 27.5558 20.417 29.1667C20.417 30.7775 21.7228 32.0833 23.3337 32.0833Z" fill="url(#paint0_linear_637_234)"/>
<path d="M34.9997 32.0833C36.6105 32.0833 37.9163 30.7775 37.9163 29.1667C37.9163 27.5558 36.6105 26.25 34.9997 26.25C33.3888 26.25 32.083 27.5558 32.083 29.1667C32.083 30.7775 33.3888 32.0833 34.9997 32.0833Z" fill="url(#paint1_linear_637_234)"/>
<path d="M46.6667 32.0833C48.2775 32.0833 49.5833 30.7775 49.5833 29.1667C49.5833 27.5558 48.2775 26.25 46.6667 26.25C45.0558 26.25 43.75 27.5558 43.75 29.1667C43.75 30.7775 45.0558 32.0833 46.6667 32.0833Z" fill="url(#paint2_linear_637_234)"/>
<g filter="url(#filter0_bii_637_234)">
<path d="M55.4163 5.83331H14.583C12.2631 5.83563 10.0388 6.75825 8.39838 8.39869C6.75794 10.0391 5.83532 12.2634 5.83301 14.5833V43.75C5.83532 46.0699 6.75794 48.2942 8.39838 49.9346C10.0388 51.575 12.2631 52.4977 14.583 52.5H48.3755L59.1876 63.3121C59.5955 63.7198 60.1151 63.9975 60.6808 64.11C61.2465 64.2225 61.8329 64.1647 62.3657 63.944C62.8986 63.7233 63.3541 63.3496 63.6746 62.8701C63.9951 62.3905 64.1662 61.8267 64.1663 61.25V14.5833C64.164 12.2634 63.2414 10.0391 61.601 8.39869C59.9605 6.75825 57.7363 5.83563 55.4163 5.83331ZM23.333 32.0833C22.7561 32.0833 22.1922 31.9123 21.7126 31.5918C21.233 31.2713 20.8591 30.8158 20.6384 30.2828C20.4176 29.7499 20.3598 29.1634 20.4724 28.5976C20.5849 28.0319 20.8627 27.5122 21.2706 27.1042C21.6785 26.6963 22.1982 26.4186 22.764 26.306C23.3298 26.1935 23.9162 26.2512 24.4492 26.472C24.9821 26.6928 25.4376 27.0666 25.7581 27.5462C26.0786 28.0259 26.2497 28.5898 26.2497 29.1666C26.2497 29.9402 25.9424 30.6821 25.3954 31.229C24.8484 31.776 24.1066 32.0833 23.333 32.0833ZM34.9997 32.0833C34.4228 32.0833 33.8589 31.9123 33.3793 31.5918C32.8996 31.2713 32.5258 30.8158 32.305 30.2828C32.0843 29.7499 32.0265 29.1634 32.1391 28.5976C32.2516 28.0319 32.5294 27.5122 32.9373 27.1042C33.3452 26.6963 33.8649 26.4186 34.4307 26.306C34.9964 26.1935 35.5829 26.2512 36.1158 26.472C36.6488 26.6928 37.1043 27.0666 37.4248 27.5462C37.7453 28.0259 37.9163 28.5898 37.9163 29.1666C37.9163 29.9402 37.6091 30.6821 37.0621 31.229C36.5151 31.776 35.7732 32.0833 34.9997 32.0833ZM46.6663 32.0833C46.0895 32.0833 45.5256 31.9123 45.0459 31.5918C44.5663 31.2713 44.1925 30.8158 43.9717 30.2828C43.7509 29.7499 43.6932 29.1634 43.8057 28.5976C43.9183 28.0319 44.196 27.5122 44.6039 27.1042C45.0118 26.6963 45.5316 26.4186 46.0973 26.306C46.6631 26.1935 47.2495 26.2512 47.7825 26.472C48.3155 26.6928 48.771 27.0666 49.0915 27.5462C49.412 28.0259 49.583 28.5898 49.583 29.1666C49.583 29.9402 49.2757 30.6821 48.7287 31.229C48.1818 31.776 47.4399 32.0833 46.6663 32.0833Z" fill="url(#paint3_linear_637_234)" fill-opacity="0.6"/>
</g>
<defs>
<filter id="filter0_bii_637_234" x="1.83301" y="1.83331" width="66.333" height="66.3327" filterUnits="userSpaceOnUse" color-interpolation-filters="sRGB">
<feFlood flood-opacity="0" result="BackgroundImageFix"/>
<feGaussianBlur in="BackgroundImageFix" stdDeviation="2"/>
<feComposite in2="SourceAlpha" operator="in" result="effect1_backgroundBlur_637_234"/>
<feBlend mode="normal" in="SourceGraphic" in2="effect1_backgroundBlur_637_234" result="shape"/>
<feColorMatrix in="SourceAlpha" type="matrix" values="0 0 0 0 0 0 0 0 0 0 0 0 0 0 0 0 0 0 127 0" result="hardAlpha"/>
<feOffset dy="-4"/>
<feGaussianBlur stdDeviation="2"/>
<feComposite in2="hardAlpha" operator="arithmetic" k2="-1" k3="1"/>
<feColorMatrix type="matrix" values="0 0 0 0 1 0 0 0 0 1 0 0 0 0 1 0 0 0 0.05 0"/>
<feBlend mode="normal" in2="shape" result="effect2_innerShadow_637_234"/>
<feColorMatrix in="SourceAlpha" type="matrix" values="0 0 0 0 0 0 0 0 0 0 0 0 0 0 0 0 0 0 127 0" result="hardAlpha"/>
<feOffset dx="-4" dy="-4"/>
<feGaussianBlur stdDeviation="2"/>
<feComposite in2="hardAlpha" operator="arithmetic" k2="-1" k3="1"/>
<feColorMatrix type="matrix" values="0 0 0 0 1 0 0 0 0 1 0 0 0 0 1 0 0 0 0.05 0"/>
<feBlend mode="normal" in2="effect2_innerShadow_637_234" result="effect3_innerShadow_637_234"/>
</filter>
<linearGradient id="paint0_linear_637_234" x1="23.3337" y1="26.25" x2="23.3337" y2="32.0833" gradientUnits="userSpaceOnUse">
<stop offset="0.451042" stop-color="#6D3BF7"/>
<stop offset="1" stop-color="#AD8FFF"/>
</linearGradient>
<linearGradient id="paint1_linear_637_234" x1="34.9997" y1="26.25" x2="34.9997" y2="32.0833" gradientUnits="userSpaceOnUse">
<stop offset="0.451042" stop-color="#6D3BF7"/>
<stop offset="1" stop-color="#AD8FFF"/>
</linearGradient>
<linearGradient id="paint2_linear_637_234" x1="46.6667" y1="26.25" x2="46.6667" y2="32.0833" gradientUnits="userSpaceOnUse">
<stop offset="0.451042" stop-color="#6D3BF7"/>
<stop offset="1" stop-color="#AD8FFF"/>
</linearGradient>
<linearGradient id="paint3_linear_637_234" x1="14.7363" y1="7.36832" x2="57.1041" y2="64.105" gradientUnits="userSpaceOnUse">
<stop stop-color="#2E4DAB"/>
<stop offset="1" stop-color="#0A1024"/>
</linearGradient>
</defs>
</svg>
