<svg width="70" height="70" viewBox="0 0 70 70" fill="none" xmlns="http://www.w3.org/2000/svg">
<path d="M26.2503 26.25H32.0837V20.4167C32.0837 19.6431 32.391 18.9013 32.9379 18.3543C33.4849 17.8073 34.2268 17.5 35.0003 17.5C35.7739 17.5 36.5157 17.8073 37.0627 18.3543C37.6097 18.9013 37.917 19.6431 37.917 20.4167V26.25H43.7503C44.5239 26.25 45.2657 26.5573 45.8127 27.1043C46.3597 27.6513 46.667 28.3931 46.667 29.1667C46.667 29.9402 46.3597 30.6821 45.8127 31.2291C45.2657 31.776 44.5239 32.0833 43.7503 32.0833H37.917V37.9167C37.917 38.6902 37.6097 39.4321 37.0627 39.9791C36.5157 40.526 35.7739 40.8333 35.0003 40.8333C34.2268 40.8333 33.4849 40.526 32.9379 39.9791C32.391 39.4321 32.0837 38.6902 32.0837 37.9167V32.0833H26.2503C25.4768 32.0833 24.7349 31.776 24.1879 31.2291C23.641 30.6821 23.3337 29.9402 23.3337 29.1667C23.3337 28.3931 23.641 27.6513 24.1879 27.1043C24.7349 26.5573 25.4768 26.25 26.2503 26.25Z" fill="url(#paint0_linear_637_227)"/>
<g filter="url(#filter0_bii_637_227)">
<path d="M14.5837 5.83331H55.417C57.7369 5.83563 59.9612 6.75825 61.6016 8.39869C63.2421 10.0391 64.1647 12.2634 64.167 14.5833V43.75C64.1647 46.0699 63.2421 48.2942 61.6016 49.9346C59.9612 51.5751 57.7369 52.4977 55.417 52.5H21.6245L10.8124 63.3121C10.4045 63.7198 9.88486 63.9975 9.31917 64.11C8.75347 64.2225 8.16712 64.1647 7.63425 63.944C7.10138 63.7233 6.6459 63.3496 6.3254 62.8701C6.00491 62.3905 5.83378 61.8268 5.83366 61.25V14.5833C5.83597 12.2634 6.75859 10.0391 8.39903 8.39869C10.0395 6.75825 12.2637 5.83563 14.5837 5.83331ZM26.2503 32.0833H32.0837V37.9166C32.0837 38.6902 32.3909 39.4321 32.9379 39.979C33.4849 40.526 34.2268 40.8333 35.0003 40.8333C35.7739 40.8333 36.5157 40.526 37.0627 39.979C37.6097 39.4321 37.917 38.6902 37.917 37.9166V32.0833H43.7503C44.5239 32.0833 45.2657 31.776 45.8127 31.229C46.3597 30.6821 46.667 29.9402 46.667 29.1666C46.667 28.3931 46.3597 27.6512 45.8127 27.1043C45.2657 26.5573 44.5239 26.25 43.7503 26.25H37.917V20.4166C37.917 19.6431 37.6097 18.9012 37.0627 18.3543C36.5157 17.8073 35.7739 17.5 35.0003 17.5C34.2268 17.5 33.4849 17.8073 32.9379 18.3543C32.3909 18.9012 32.0837 19.6431 32.0837 20.4166V26.25H26.2503C25.4768 26.25 24.7349 26.5573 24.1879 27.1043C23.6409 27.6512 23.3337 28.3931 23.3337 29.1666C23.3337 29.9402 23.6409 30.6821 24.1879 31.229C24.7349 31.776 25.4768 32.0833 26.2503 32.0833Z" fill="url(#paint1_linear_637_227)" fill-opacity="0.6"/>
</g>
<defs>
<filter id="filter0_bii_637_227" x="1.83398" y="1.83331" width="66.333" height="66.3327" filterUnits="userSpaceOnUse" color-interpolation-filters="sRGB">
<feFlood flood-opacity="0" result="BackgroundImageFix"/>
<feGaussianBlur in="BackgroundImageFix" stdDeviation="2"/>
<feComposite in2="SourceAlpha" operator="in" result="effect1_backgroundBlur_637_227"/>
<feBlend mode="normal" in="SourceGraphic" in2="effect1_backgroundBlur_637_227" result="shape"/>
<feColorMatrix in="SourceAlpha" type="matrix" values="0 0 0 0 0 0 0 0 0 0 0 0 0 0 0 0 0 0 127 0" result="hardAlpha"/>
<feOffset dy="-4"/>
<feGaussianBlur stdDeviation="2"/>
<feComposite in2="hardAlpha" operator="arithmetic" k2="-1" k3="1"/>
<feColorMatrix type="matrix" values="0 0 0 0 1 0 0 0 0 1 0 0 0 0 1 0 0 0 0.05 0"/>
<feBlend mode="normal" in2="shape" result="effect2_innerShadow_637_227"/>
<feColorMatrix in="SourceAlpha" type="matrix" values="0 0 0 0 0 0 0 0 0 0 0 0 0 0 0 0 0 0 127 0" result="hardAlpha"/>
<feOffset dx="-4" dy="-4"/>
<feGaussianBlur stdDeviation="2"/>
<feComposite in2="hardAlpha" operator="arithmetic" k2="-1" k3="1"/>
<feColorMatrix type="matrix" values="0 0 0 0 1 0 0 0 0 1 0 0 0 0 1 0 0 0 0.05 0"/>
<feBlend mode="normal" in2="effect2_innerShadow_637_227" result="effect3_innerShadow_637_227"/>
</filter>
<linearGradient id="paint0_linear_637_227" x1="35.0003" y1="17.5" x2="35.0003" y2="40.8333" gradientUnits="userSpaceOnUse">
<stop offset="0.451042" stop-color="#6D3BF7"/>
<stop offset="1" stop-color="#AD8FFF"/>
</linearGradient>
<linearGradient id="paint1_linear_637_227" x1="55.2637" y1="7.36832" x2="12.8959" y2="64.105" gradientUnits="userSpaceOnUse">
<stop stop-color="#2E4DAB"/>
<stop offset="1" stop-color="#0A1024"/>
</linearGradient>
</defs>
</svg>
