<svg width="60" height="60" viewBox="0 0 60 60" fill="none" xmlns="http://www.w3.org/2000/svg">
<path d="M32.8969 19.9116C31.1774 19.9109 29.4868 20.3526 27.9874 21.1942C26.4516 20.3358 24.718 19.8938 22.9586 19.9122C21.1992 19.9306 19.4752 20.4086 17.9576 21.299C16.44 22.1893 15.1816 23.4609 14.3071 24.9877C13.4327 26.5146 12.9727 28.2435 12.9727 30.0029C12.9727 31.7624 13.4327 33.4913 14.3071 35.0181C15.1816 36.545 16.44 37.8166 17.9576 38.7069C19.4752 39.5973 21.1992 40.0753 22.9586 40.0937C24.718 40.1121 26.4516 39.6701 27.9874 38.8117C29.3335 39.562 30.8336 39.994 32.3726 40.0745C33.9116 40.1549 35.4486 39.8817 36.8656 39.2758C38.2826 38.6699 39.5419 37.7474 40.547 36.5792C41.552 35.4109 42.2761 34.0279 42.6635 32.5363C43.051 31.0447 43.0915 29.4842 42.7821 27.9744C42.4727 26.4647 41.8215 25.046 40.8785 23.827C39.9355 22.6081 38.7258 21.6215 37.3422 20.9427C35.9586 20.264 34.4379 19.9113 32.8969 19.9117V19.9116ZM25.3556 36.6855C24.6243 36.9472 23.8546 37.0853 23.078 37.0943C21.1973 37.0943 19.3936 36.3472 18.0637 35.0173C16.7338 33.6874 15.9867 31.8837 15.9867 30.003C15.9867 28.1222 16.7338 26.3185 18.0637 24.9887C19.3936 23.6588 21.1973 22.9117 23.078 22.9117C23.8546 22.9206 24.6243 23.0588 25.3556 23.3205C23.7133 25.159 22.8056 27.5378 22.8056 30.003C22.8056 32.4681 23.7133 34.847 25.3556 36.6855V36.6855ZM27.9874 35.0994C27.2979 34.4417 26.749 33.6509 26.3739 32.7749C25.9989 31.8989 25.8055 30.9559 25.8055 30.0029C25.8055 29.05 25.9989 28.107 26.3739 27.231C26.749 26.355 27.2979 25.5642 27.9874 24.9065C28.677 25.5642 29.2259 26.355 29.6009 27.231C29.9759 28.107 30.1693 29.05 30.1693 30.0029C30.1693 30.9559 29.9759 31.8989 29.6009 32.7749C29.2259 33.6509 28.677 34.4417 27.9874 35.0994ZM32.8969 37.0942C32.1202 37.0853 31.3505 36.9471 30.6193 36.6855C32.2615 34.847 33.1693 32.4681 33.1693 30.003C33.1693 27.5378 32.2615 25.159 30.6193 23.3205C31.3505 23.0588 32.1202 22.9206 32.8969 22.9117C34.7776 22.9117 36.5813 23.6588 37.9112 24.9887C39.241 26.3185 39.9882 28.1222 39.9882 30.003C39.9882 31.8837 39.241 33.6874 37.9112 35.0173C36.5813 36.3472 34.7776 37.0943 32.8969 37.0943V37.0942Z" fill="url(#paint0_linear_637_332)"/>
<defs>
<linearGradient id="paint0_linear_637_332" x1="27.9801" y1="19.9116" x2="27.9801" y2="40.0943" gradientUnits="userSpaceOnUse">
<stop offset="0.451042" stop-color="#6D3BF7"/>
<stop offset="1" stop-color="#AD8FFF"/>
</linearGradient>
</defs>
</svg>
