<svg width="36" height="36" viewBox="0 0 36 36" fill="none" xmlns="http://www.w3.org/2000/svg">
<path d="M22.8969 7.91162C21.1774 7.91094 19.4868 8.35262 17.9874 9.1942C16.4516 8.33576 14.718 7.89381 12.9586 7.91219C11.1992 7.93057 9.47517 8.40863 7.95758 9.29896C6.43999 10.1893 5.18155 11.4609 4.30712 12.9877C3.43269 14.5146 2.97266 16.2435 2.97266 18.0029C2.97266 19.7624 3.43269 21.4913 4.30712 23.0181C5.18155 24.545 6.43999 25.8166 7.95758 26.7069C9.47517 27.5973 11.1992 28.0753 12.9586 28.0937C14.718 28.1121 16.4516 27.6701 17.9874 26.8117C19.3335 27.562 20.8336 27.994 22.3726 28.0745C23.9116 28.1549 25.4486 27.8817 26.8656 27.2758C28.2826 26.6699 29.5419 25.7474 30.547 24.5792C31.552 23.4109 32.2761 22.0279 32.6635 20.5363C33.051 19.0447 33.0915 17.4842 32.7821 15.9744C32.4727 14.4647 31.8215 13.046 30.8785 11.827C29.9355 10.6081 28.7258 9.62145 27.3422 8.94274C25.9586 8.26403 24.4379 7.91132 22.8969 7.9117V7.91162ZM15.3556 24.6855C14.6243 24.9472 13.8546 25.0853 13.078 25.0943C11.1973 25.0943 9.39357 24.3472 8.06369 23.0173C6.73381 21.6874 5.98669 19.8837 5.98669 18.003C5.98669 16.1222 6.73381 14.3185 8.06369 12.9887C9.39357 11.6588 11.1973 10.9117 13.078 10.9117C13.8546 10.9206 14.6243 11.0588 15.3556 11.3205C13.7133 13.159 12.8056 15.5378 12.8056 18.003C12.8056 20.4681 13.7133 22.847 15.3556 24.6855V24.6855ZM17.9874 23.0994C17.2979 22.4417 16.749 21.6509 16.3739 20.7749C15.9989 19.8989 15.8055 18.9559 15.8055 18.0029C15.8055 17.05 15.9989 16.107 16.3739 15.231C16.749 14.355 17.2979 13.5642 17.9874 12.9065C18.677 13.5642 19.2259 14.355 19.6009 15.231C19.9759 16.107 20.1693 17.05 20.1693 18.0029C20.1693 18.9559 19.9759 19.8989 19.6009 20.7749C19.2259 21.6509 18.677 22.4417 17.9874 23.0994ZM22.8969 25.0942C22.1202 25.0853 21.3505 24.9471 20.6193 24.6855C22.2615 22.847 23.1693 20.4681 23.1693 18.003C23.1693 15.5378 22.2615 13.159 20.6193 11.3205C21.3505 11.0588 22.1202 10.9206 22.8969 10.9117C24.7776 10.9117 26.5813 11.6588 27.9112 12.9887C29.241 14.3185 29.9882 16.1222 29.9882 18.003C29.9882 19.8837 29.241 21.6874 27.9112 23.0173C26.5813 24.3472 24.7776 25.0943 22.8969 25.0943V25.0942Z" fill="url(#paint0_linear_765_314)"/>
<defs>
<linearGradient id="paint0_linear_765_314" x1="17.9801" y1="7.91162" x2="17.9801" y2="28.0943" gradientUnits="userSpaceOnUse">
<stop offset="0.451042" stop-color="#6D3BF7"/>
<stop offset="1" stop-color="#AD8FFF"/>
</linearGradient>
</defs>
</svg>
