<svg width="60" height="60" viewBox="0 0 60 60" fill="none" xmlns="http://www.w3.org/2000/svg">
<path d="M38.8547 26.3612C39.3523 23.0709 36.8195 21.3022 33.3563 20.1222L34.4797 15.6651L31.7367 14.989L30.643 19.3286C29.9219 19.1509 29.1812 18.9832 28.4453 18.8171L29.5469 14.4488L26.8055 13.7727L25.6812 18.2282C25.0844 18.0938 24.4984 17.9609 23.9297 17.821L23.9328 17.8071L20.15 16.8729L19.4203 19.7706C19.4203 19.7706 21.4555 20.2319 21.4125 20.2605C22.5234 20.5348 22.7242 21.262 22.6906 21.8384L21.4109 26.916C21.4875 26.9353 21.5867 26.9632 21.6961 27.0064C21.6047 26.984 21.507 26.9593 21.4063 26.9353L19.6125 34.0483C19.4766 34.3821 19.132 34.8828 18.3555 34.6927C18.3828 34.7322 16.3617 34.2005 16.3617 34.2005L15 37.3061L18.5695 38.1862C19.2336 38.3508 19.8844 38.5232 20.525 38.6854L19.3899 43.1935L22.1297 43.8697L23.2539 39.4095C24.0023 39.6104 24.7289 39.7959 25.4398 39.9705L24.3195 44.4098L27.0625 45.0859L28.1977 40.5863C32.875 41.4618 36.3922 41.1087 37.8727 36.9244C39.0656 33.5553 37.8133 31.6119 35.3523 30.3446C37.1445 29.9359 38.4945 28.7698 38.8547 26.3612ZM32.5875 35.0536C31.7398 38.4227 26.0047 36.6014 24.1453 36.1447L25.6516 30.1723C27.5109 30.6313 33.4734 31.54 32.5875 35.0536ZM33.4359 26.3125C32.6625 29.3772 27.8891 27.8201 26.3406 27.4384L27.7063 22.0216C29.2547 22.4033 34.2414 23.1157 33.4359 26.3125Z" fill="url(#paint0_linear_637_350)"/>
<defs>
<linearGradient id="paint0_linear_637_350" x1="26.9586" y1="13.7727" x2="26.9586" y2="45.0859" gradientUnits="userSpaceOnUse">
<stop offset="0.451042" stop-color="#6D3BF7"/>
<stop offset="1" stop-color="#AD8FFF"/>
</linearGradient>
</defs>
</svg>
