<svg width="30" height="30" viewBox="0 0 30 30" fill="none" xmlns="http://www.w3.org/2000/svg">
<path d="M23.6926 18.5159C24.1887 18.7061 24.3796 19.4471 24.4175 19.7703C24.494 20.36 24.3227 20.5881 24.1318 20.5881C23.941 20.5881 23.6737 20.36 23.388 19.9038C23.1017 19.4471 22.9873 18.9342 23.1402 18.6677C23.2351 18.4964 23.4443 18.4208 23.6926 18.5159ZM20.7943 20.6643C21.0995 20.6643 21.4427 20.7972 21.7479 21.0631C22.3389 21.5577 22.5108 22.1278 22.2055 22.5462C22.0336 22.7553 21.7479 22.8883 21.4237 22.8883C21.0995 22.8883 20.7563 22.7742 20.5275 22.5651C19.9935 22.1089 19.8412 21.3479 20.1838 20.9302C20.3177 20.7588 20.5276 20.6643 20.7943 20.6643ZM14.1203 26.1581C6.8732 26.1581 1 20.3027 1 13.0788C1 5.85487 6.87379 0 14.1197 0C21.3662 0 27.24 5.85546 27.24 13.0788C27.24 15.5308 26.5537 17.8317 25.3908 19.7898C25.3522 19.8465 25.2568 19.8276 25.2378 19.7514C24.7803 16.5389 22.816 14.7704 19.9556 14.2386C19.7072 14.2002 19.6693 14.0484 19.9935 14.0106C20.8707 13.9343 22.1101 13.9532 22.7585 14.0673C22.7965 13.7441 22.816 13.402 22.816 13.0599C22.816 8.28804 18.9254 4.40961 14.1387 4.40961C9.35252 4.40961 5.46195 8.28804 5.46195 13.0599C5.46195 17.8317 9.35253 21.7101 14.1393 21.7101H14.5394C14.4034 20.9383 14.3459 20.1548 14.3675 19.3715C14.387 18.8391 14.5014 18.7629 14.7302 19.1812C15.9316 21.2534 17.6481 23.1164 21.0041 23.8579C23.7501 24.4665 26.4962 25.1696 29.452 28.9145C29.7188 29.2377 29.3187 29.5798 29.0134 29.3139C26.0007 26.6521 23.2546 25.7776 20.7563 25.7776C17.9528 25.7971 16.0466 26.1581 14.1203 26.1581Z" fill="url(#paint0_linear_765_353)"/>
<defs>
<linearGradient id="paint0_linear_765_353" x1="33.6666" y1="0" x2="33.6666" y2="29.4091" gradientUnits="userSpaceOnUse">
<stop offset="0.451042" stop-color="#6D3BF7"/>
<stop offset="1" stop-color="#AD8FFF"/>
</linearGradient>
</defs>
</svg>
